<?xml version="1.0" encoding="utf-8"?>
<!-- Generator: Adobe Illustrator 19.1.1, SVG Export Plug-In . SVG Version: 6.00 Build 0)  -->
<svg version="1.1" id="Ebene_1" xmlns="http://www.w3.org/2000/svg" xmlns:xlink="http://www.w3.org/1999/xlink" x="0px" y="0px"
	 viewBox="0 0 255.9 271.1" style="enable-background:new 0 0 255.9 271.1;" xml:space="preserve">
<style type="text/css">
	.st0{fill:#FFFFFF;}
</style>
<path d="M170.2,174.4c-23.4,22.2-57.9,19.2-77.7-1.5c-19.2-20.1-19.7-52.3-1-73.4c18.8-21.4,54.7-25.8,78.6-2.9
	c8.5-8.4,16.9-16.8,25.3-25.1c-32.5-33.1-89.8-36.6-127.1,0.2c-36.6,36-35.5,95.6,2.9,130.7c38,34.8,93.7,29.2,124.3-2.6
	C187.1,191.3,178.7,182.9,170.2,174.4z"/>
<path d="M255.9,72.9C234.4,31.8,192.5,3.1,143.7,0.2C141,0.1,138.3,0,135.6,0C60.7,0,0,60.7,0,135.6s60.7,135.6,135.6,135.6
	c2.7,0,5.4-0.1,8.1-0.2c48.6-2.9,90.3-31.3,111.8-72L190.3,136L255.9,72.9z"/>
<path class="st0" d="M170.2,174.4c8.5,8.5,16.9,16.9,25.3,25.3c-30.6,31.7-86.3,37.4-124.3,2.6c-38.3-35.1-39.5-94.7-2.9-130.7
	c37.4-36.8,94.6-33.3,127.1-0.2c-8.4,8.4-16.9,16.8-25.3,25.1c-23.9-22.9-59.7-18.5-78.6,2.9c-18.6,21.2-18.1,53.3,1,73.4
	C112.3,193.7,146.8,196.7,170.2,174.4z"/>
</svg>
